<svg width="58" height="64" viewBox="0 0 58 64" fill="none" xmlns="http://www.w3.org/2000/svg">
<g clip-path="url(#clip0_6_31)">
<path fill-rule="evenodd" clip-rule="evenodd" d="M18.2201 24.7979L1.60781 15.4953L28.389 0.5L37.1659 5.37647L31.231 8.79455L28.9056 7.49166L14.7806 15.4256L18.6517 17.5944L32.6904 9.81998H32.6931L38.9221 6.3523L55.3806 15.4967L28.389 30.492L20.1071 25.8542L26.7137 22.0433L28.6965 23.1599L42.92 15.2822L38.949 13.0571L24.9346 20.9281H24.9319L18.2201 24.7979ZM0 17.8612L27.1346 33.1099V44.0545L24.7687 45.3225L27.1346 47.3559V63.2359L0 48.1401V17.8612ZM6.34763 28.6355V32.9732L20.4915 40.9862V36.536L6.34763 28.6355ZM6.34763 39.9662V44.3038L20.4915 52.3182V47.868L6.34763 39.9662ZM57.853 41.4942V47.683L30.5687 62.9169V32.7225L57.853 17.6012V21.3879L57.9002 21.3436V28.8393L51.5714 32.382V28.0726L37.2131 36.1647V51.7673L51.5714 43.7622V39.8549L57.9002 36.3121V41.4487L57.853 41.4929V41.4942Z" fill="#33C3D7"/>
</g>
<defs>
<clipPath id="clip0_6_31">
<rect width="58" height="63" fill="white" transform="translate(0 0.5)"/>
</clipPath>
</defs>
</svg>
