<svg width="22" height="22" viewBox="0 0 22 22" fill="none" xmlns="http://www.w3.org/2000/svg">
<g clip-path="url(#clip0_42_146)">
<path d="M0.916672 3.66669V9.16669H6.41667" stroke="white" stroke-width="2" stroke-linecap="round" stroke-linejoin="round"/>
<path d="M21.0833 18.3333V12.8333H15.5833" stroke="white" stroke-width="2" stroke-linecap="round" stroke-linejoin="round"/>
<path d="M18.7825 8.25003C18.3176 6.93625 17.5275 5.76165 16.4858 4.83583C15.4442 3.91001 14.185 3.26315 12.8257 2.9556C11.4665 2.64805 10.0515 2.68984 8.71275 3.07707C7.37401 3.4643 6.15519 4.18435 5.17001 5.17003L0.916672 9.1667M21.0833 12.8334L16.83 16.83C15.8448 17.8157 14.626 18.5358 13.2873 18.923C11.9485 19.3102 10.5335 19.352 9.17427 19.0445C7.81502 18.7369 6.55582 18.09 5.51418 17.1642C4.47254 16.2384 3.68241 15.0638 3.21751 13.75" stroke="white" stroke-width="2" stroke-linecap="round" stroke-linejoin="round"/>
</g>
<defs>
<clipPath id="clip0_42_146">
<rect width="22" height="22" fill="white"/>
</clipPath>
</defs>
</svg>
